<svg xmlns="http://www.w3.org/2000/svg" viewBox="30 70 300 260">
  <animate id="start" begin="indefinite" dur="0.1s" repeatCount="1" />
  <!-- <animate id="start" dur="0.1s" repeatCount="1" /> -->

  <!-- Кабина -->
  <g transform-origin="200 220">
    <animateTransform attributeName="transform" type="scale" values="1 1; 1 0.9; 1 1" keyTimes="0; 0.5; 1" keySplines="
        0.3 0 0.3 1;
        0.3 0 0.3 1" dur="1.8s" begin="start.begin" end="mountains.end" repeatCount="indefinite" />
    <animateTransform attributeName="transform" type="skewX" values="0; 5; 0" keyTimes="0; 0.5; 1" keySplines="
        0.3 0 0.3 1;
        0.3 0 0.3 1" dur="1.8s" begin="start.begin" end="mountains.end" repeatCount="indefinite" additive="sum" />
    <animate attributeName="opacity" begin="mountains.begin" to="0" dur="0.3s" repeatCount="1" fill="freeze" />
    <path d="M175.44,249.28h48.36a13.27,13.27,0,0,0,13-10.65l3.74-18.32H172.36v25.89A3.09,3.09,0,0,0,175.44,249.28Z"
      fill="none" stroke="#fff" stroke-linecap="round" stroke-linejoin="round" stroke-width="2" />
    <path
      d="M185.64,231.88h-2.05a3.45,3.45,0,0,0-3.43,3.45v2.92a3.45,3.45,0,0,0,3.43,3.45h2.05a3.45,3.45,0,0,0,3.43-3.45v-2.92A3.45,3.45,0,0,0,185.64,231.88Z"
      fill="none" stroke="#fff" stroke-linecap="round" stroke-linejoin="round" stroke-width="2" />
    <path
      d="M204.25,231.88h-2.05a3.45,3.45,0,0,0-3.43,3.45v2.92a3.45,3.45,0,0,0,3.43,3.45h2.05a3.45,3.45,0,0,0,3.43-3.45v-2.92A3.44,3.44,0,0,0,204.25,231.88Z"
      fill="none" stroke="#fff" stroke-linecap="round" stroke-linejoin="round" stroke-width="2">
      <animate attributeName="d" dur="0.6s" begin="mountains.begin" repeatCount="1"
        values="
      M204.25,231.88h-2.05a3.45,3.45,0,0,0-3.43,3.45v2.92a3.45,3.45,0,0,0,3.43,3.45h2.05a3.45,3.45,0,0,0,3.43-3.45v-2.92A3.44,3.44,0,0,0,204.25,231.88Z;
      M275,225.43H257.87a17.6,17.6,0,0,1-17.52-17.58V170a17.6,17.6,0,0,1,17.52-17.58H275A17.6,17.6,0,0,1,292.51,170v37.83A17.61,17.61,0,0,1,275,225.43Z" fill="freeze" />
    </path>
    <path d="M235.79,241.69h-9.22a8.31,8.31,0,0,1-8.28-8.31V220.31" fill="none" stroke="#fff" stroke-linecap="round"
      stroke-miterlimit="10" stroke-width="2" />
  </g>

  <!-- Хвост сзади -->
  <g transform-origin="123 190.98">
    <animateTransform attributeName="transform" type="translate" begin="start.begin -0.9s" values="0 -3; 0 3; 0 -3"
      keyTimes="0; 0.5; 1" keySplines="
        0.3 0 0.3 1;
        0.3 0 0.3 1" dur="1.8s" end="mountains.end" repeatCount="indefinite" />
    <animateTransform attributeName="transform" type="scale" begin="start.begin -0.9s"
      values="1 0.9; 1 1; 1 0.9; 1 1; 1 0.9" keyTimes="0; 0.25; 0.5; 0.75; 1" keySplines="
        0.3 0 0.3 1;
        0.3 0 0.3 1;
        0.3 0 0.3 1;
        0.3 0 0.3 1" dur="1.8s" end="mountains.end" repeatCount="indefinite" additive="sum" />
    <animate attributeName="opacity" begin="mountains.begin" to="0" dur="0.3s" repeatCount="1" fill="freeze" />
    <path
      d="M123.23,173.34h9.16a3.29,3.29,0,0,1,3.29,3.3v5.71a3.29,3.29,0,0,1-3.29,3.3H115.57a1.32,1.32,0,0,1-1.32-1.32v-2a9,9,0,0,1,9-9"
      fill="#068e4d" />
    <path
      d="M123.23,207.39h9.16a3.29,3.29,0,0,0,3.29-3.3v-5.71a3.29,3.29,0,0,0-3.29-3.3H115.57a1.32,1.32,0,0,0-1.32,1.32v2a9,9,0,0,0,9,9"
      fill="#068e4d" />

    <path
      d="M123.23,173.34h9.16a3.29,3.29,0,0,1,3.29,3.3v5.71a3.29,3.29,0,0,1-3.29,3.3H115.57a1.32,1.32,0,0,1-1.32-1.32v-2A9,9,0,0,1,123.23,173.34Z"
      fill="none" stroke="#fff" stroke-linecap="round" stroke-linejoin="round" stroke-width="2" />
    <path
      d="M123.23,207.39h9.16a3.29,3.29,0,0,0,3.29-3.3v-5.71a3.29,3.29,0,0,0-3.29-3.3H115.57a1.32,1.32,0,0,0-1.32,1.32v2A9,9,0,0,0,123.23,207.39Z"
      fill="none" stroke="#fff" stroke-linecap="round" stroke-linejoin="round" stroke-width="2" />
  </g>

  <!-- Тело дирижабля -->
  <g>
    <animate attributeName="opacity" begin="mountains.begin" to="0" dur="0.3s" repeatCount="1" fill="freeze" />
    <defs>
      <linearGradient id="two-color-gradient" x1="0%" y1="0%" x2="0%" y2="100%">
        <stop offset="50%" stop-color="#36e69a" />
        <stop offset="50%" stop-color="#068e4d" />
      </linearGradient>
    </defs>
    <path
      d="M205,227.08c43.38,0,74.86-15.55,74.86-37s-31.48-37-74.86-37c-27.94,0-55.36,13.53-73.46,24.87a14.3,14.3,0,0,0,0,24.21c18.09,11.33,45.52,24.87,73.46,24.87"
      fill="url(#two-color-gradient)" />

    <path
      d="M205,227.08c43.38,0,74.86-15.55,74.86-37s-31.48-37-74.86-37c-27.94,0-55.36,13.53-73.46,24.87a14.3,14.3,0,0,0,0,24.21C149.63,213.54,177.06,227.08,205,227.08Z"
      fill="none" stroke="#fff" stroke-width="2" />

    <path
      d="M132.18,186.12c16.74-4.27,44.58-10,72.81-10,44.53,0,73.26,6.43,73.61,14.38,0,0.17,0,.34,0,0.51-0.85,7.86-29.45,14.17-73.6,14.17-28.23,0-56.07-5.76-72.81-10-3.79-1-5.79-2.53-6-4.13l0-.51c0.13-1.69,2.15-3.36,6.1-4.37"
      fill="#25b774">
      <animate attributeName="d" dur="1.8s" begin="start.begin" end="mountains.end" repeatCount="indefinite"
        values="
      m 132.18,186.12 c 16.74,-4.27 44.32839,-13.52252 72.55839,-13.52252 44.53,0 73.51161,9.95252 73.86161,17.90252 v 0.51 c -0.85,7.86 -29.45,11.02489 -73.6,11.02489 -28.23,0 -56.07,-2.61489 -72.81,-6.85489 -3.79,-1 -5.79,-2.53 -6,-4.13 v -0.51 c 0.13,-1.69 2.15,-3.36 6.1,-4.37;
      m 132.18,186.12 c 16.74,-4.27 44.58,-6.9807 72.81,-6.9807 44.53,0 73.26,3.4107 73.61,11.3607 v 0.51 c -0.85,7.86 -29.70161,17.94413 -73.85161,17.94413 -28.23,0 -55.81839,-9.53413 -72.55839,-13.77413 -3.79,-1 -5.79,-2.53 -6,-4.13 v -0.51 c 0.13,-1.69 2.15,-3.36 6.1,-4.37;
      m 132.18,186.12 c 16.74,-4.27 44.32839,-13.52252 72.55839,-13.52252 44.53,0 73.51161,9.95252 73.86161,17.90252 v 0.51 c -0.85,7.86 -29.45,11.02489 -73.6,11.02489 -28.23,0 -56.07,-2.61489 -72.81,-6.85489 -3.79,-1 -5.79,-2.53 -6,-4.13 v -0.51 c 0.13,-1.69 2.15,-3.36 6.1,-4.37;" />
    </path>
  </g>

  <!-- Хвост спереиди -->
  <g id="tail-front" transform-origin="123 190.98">
    <animateTransform attributeName="transform" type="translate" values="0 -3; 0 3; 0 -3" keyTimes="0; 0.5; 1"
      keySplines="
        0.3 0 0.3 1;
        0.3 0 0.3 1" dur="1.8s" begin="start.begin" end="mountains.end" repeatCount="indefinite" />
    <animateTransform attributeName="transform" type="scale" values="1 0.9; 1 1; 1 0.9; 1 1; 1 0.9"
      keyTimes="0; 0.25; 0.5; 0.75; 1" keySplines="
        0.3 0 0.3 1;
        0.3 0 0.3 1;
        0.3 0 0.3 1;
        0.3 0 0.3 1" dur="1.8s" begin="start.begin" end="mountains.end" repeatCount="indefinite" additive="sum" />
    <animate attributeName="opacity" begin="mountains.begin" to="0" dur="0.3s" repeatCount="1" fill="freeze" />
    <path
      d="M123.23,173.34h9.16a3.29,3.29,0,0,1,3.29,3.3v5.71a3.29,3.29,0,0,1-3.29,3.3H115.57a1.32,1.32,0,0,1-1.32-1.32v-2a9,9,0,0,1,9-9"
      fill="#068e4d" />
    <path
      d="M123.23,207.39h9.16a3.29,3.29,0,0,0,3.29-3.3v-5.71a3.29,3.29,0,0,0-3.29-3.3H115.57a1.32,1.32,0,0,0-1.32,1.32v2a9,9,0,0,0,9,9"
      fill="#068e4d" />

    <path
      d="M123.23,173.34h9.16a3.29,3.29,0,0,1,3.29,3.3v5.71a3.29,3.29,0,0,1-3.29,3.3H115.57a1.32,1.32,0,0,1-1.32-1.32v-2A9,9,0,0,1,123.23,173.34Z"
      fill="none" stroke="#fff" stroke-linecap="round" stroke-linejoin="round" stroke-width="2" />
    <path
      d="M123.23,207.39h9.16a3.29,3.29,0,0,0,3.29-3.3v-5.71a3.29,3.29,0,0,0-3.29-3.3H115.57a1.32,1.32,0,0,0-1.32,1.32v2A9,9,0,0,0,123.23,207.39Z"
      fill="none" stroke="#fff" stroke-linecap="round" stroke-linejoin="round" stroke-width="2" />
  </g>

  <!-- Облако 1 -->
  <g opacity="0">
    <animateTransform id="moveCloud1" attributeName="transform" type="translate" from="200 0" to="0 0" calcMode="linear"
      dur="1s" begin="start.begin" repeatCount="1" fill="freeze" />
    <animate attributeName="opacity" begin="start.begin" from="0" to="1" dur="0.3s" repeatCount="1" fill="freeze" />
    <animate attributeName="opacity" begin="moveCloud1.end - 0.3s" from="1" to="0" dur="0.3s" repeatCount="1"
      fill="freeze" />
    <line x1="68.95" y1="107.8" x2="131.86" y2="107.8" fill="none" stroke="#fff" stroke-linecap="round"
      stroke-miterlimit="10" stroke-width="2" />
    <path d="M41.77,97.54H77.06a12.4,12.4,0,1,1,24.8,0h17.93" fill="none" stroke="#fff" stroke-linecap="round"
      stroke-miterlimit="10" stroke-width="2" />
  </g>

  <!-- Облако 2 -->
  <g opacity="0">
    <animateTransform id="moveCloud2" attributeName="transform" type="translate" begin="start.begin + 0.6s" from="0 0"
      to="-200 0" calcMode="linear" dur="1s" repeatCount="1" fill="freeze" />
    <animate attributeName="opacity" begin="moveCloud2.begin" from="0" to="1" dur="0.3s" repeatCount="1"
      fill="freeze" />
    <animate attributeName="opacity" begin="moveCloud2.end - 0.3s" from="1" to="0" dur="0.3s" repeatCount="1"
      fill="freeze" />
    <line x1="258.96" y1="93.19" x2="298.74" y2="93.19" fill="none" stroke="#fff" stroke-linecap="round"
      stroke-miterlimit="10" stroke-width="2" />
    <path d="M278.75,82.91H251.39a12.4,12.4,0,1,0-24.8,0H208.65" fill="none" stroke="#fff" stroke-linecap="round"
      stroke-miterlimit="10" stroke-width="2" />
    <line x1="287.01" y1="82.91" x2="309.21" y2="82.91" fill="none" stroke="#fff" stroke-linecap="round"
      stroke-miterlimit="10" stroke-width="2" />
  </g>

  <!-- Дымок из хвоста -->
  <g>
    <animate attributeName="opacity" begin="mountains.begin" to="0" dur="0.3s" repeatCount="1" fill="freeze" />
    <line transform-origin="106.25 179.49" x1="106.25" y1="179.49" x2="84.05" y2="179.49" fill="none" stroke="#fff"
      stroke-linecap="round" stroke-miterlimit="10" stroke-width="2">
      <animateTransform attributeName="transform" type="scale" values="1 1; 0.5 1; 1 1" keyTimes="0; 0.5; 1" keySplines="
          0.3 0 0.3 1;
          0.3 0 0.3 1" dur="0.9s" begin="start.begin" end="mountains.end" repeatCount="indefinite" />
    </line>

    <line transform-origin="106.25 190.98" x1="106.25" y1="190.98" x2="68.77" y2="190.98" fill="none" stroke="#fff"
      stroke-linecap="round" stroke-miterlimit="10" stroke-width="2">
      <animateTransform attributeName="transform" begin="start.begin -0.3s" type="scale" values="1 1; 0.5 1; 1 1"
        keyTimes="0; 0.5; 1" keySplines="
          0.3 0 0.3 1;
          0.3 0 0.3 1" dur="0.9s" end="mountains.end" repeatCount="indefinite" />
    </line>
    <line transform-origin="106.25 201.23" x1="106.25" y1="201.23" x2="84.05" y2="201.23" fill="none" stroke="#fff"
      stroke-linecap="round" stroke-miterlimit="10" stroke-width="2">
      <animateTransform attributeName="transform" begin="start.begin -0.6s" type="scale" values="1 1; 0.5 1; 1 1"
        keyTimes="0; 0.5; 1" keySplines="
          0.3 0 0.3 1;
          0.3 0 0.3 1" calcMode="spline" dur="0.9s" end="mountains.end" repeatCount="indefinite" />
    </line>
  </g>

  <!-- Горы и горизонт -->
  <path
    d="M289.94,327.88H244.88L212.8,296.58a1.89,1.89,0,0,0-2.44,0l-10.2,10.23a1.72,1.72,0,0,1-2.25,0l-19-20.17a2.4,2.4,0,0,0-3.1,0l-26.42,25.64a1.71,1.71,0,0,1-2.25,0l-2.63-2.92a1.71,1.71,0,0,0-2.31,0L124.63,329H80.78"
    fill="none" stroke="#fff" stroke-linecap="round" stroke-miterlimit="10" stroke-width="2">

    <animate id="mountains" attributeName="d" dur="0.6s" begin="start.begin + 2s" repeatCount="1"
      values="
      M289.94,327.88H244.88L212.8,296.58a1.89,1.89,0,0,0-2.44,0l-10.2,10.23a1.72,1.72,0,0,1-2.25,0l-19-20.17a2.4,2.4,0,0,0-3.1,0l-26.42,25.64a1.71,1.71,0,0,1-2.25,0l-2.63-2.92a1.71,1.71,0,0,0-2.31,0L124.63,329H80.78;
      M289.94,328H244.88L212.8,328a1.89,1.89,0,0,0-0,0l-10.2,0a1.72,1.72,0,0,1-0,0l-19,0a2.4,2.4,0,0,0-0,0l-26.42,0a1.71,1.71,0,0,1-0,0l-2.63,0a1.71,1.71,0,0,0-0,0L124.63,328H80.78" fill="freeze" />
  </path>


  <defs>
    <clipPath id="window">
      <path
        d="M275,225.43H257.87a17.6,17.6,0,0,1-17.52-17.58V170a17.6,17.6,0,0,1,17.52-17.58H275A17.6,17.6,0,0,1,292.51,170v37.83A17.61,17.61,0,0,1,275,225.43Z" />
    </clipPath>
  </defs>

  <!-- Облака за окном -->
  <g clip-path="url(#window)">
    <g transform="translate(300 160)" opacity="0">
      <animate attributeName="opacity" begin="mountains.begin" from="0" to="1" dur="0.6s" repeatCount="1"
        fill="freeze" />

      <animateTransform attributeName="transform" type="translate" begin="mountains.begin" from="300 160" to="-100 160"
        calcMode="linear" dur="2s" repeatCount="indefinite" />
      <line x1="28.18" y1="38.34" x2="91.09" y2="38.34" fill="none" stroke="#fff" stroke-linecap="round"
        stroke-miterlimit="10" stroke-width="2" />
      <path d="M41.77,97.54H77.06a12.4,12.4,0,1,1,24.8,0h17.93" transform="translate(-40.77 -69.46)" fill="none"
        stroke="#fff" stroke-linecap="round" stroke-miterlimit="10" stroke-width="2" />
      <line x1="218.19" y1="23.72" x2="257.97" y2="23.72" fill="none" stroke="#fff" stroke-linecap="round"
        stroke-miterlimit="10" stroke-width="2" />
      <path d="M278.75,82.91H251.39a12.4,12.4,0,1,0-24.8,0H208.65" transform="translate(-40.77 -69.46)" fill="none"
        stroke="#fff" stroke-linecap="round" stroke-miterlimit="10" stroke-width="2" />
      <line x1="246.24" y1="13.45" x2="268.43" y2="13.45" fill="none" stroke="#fff" stroke-linecap="round"
        stroke-miterlimit="10" stroke-width="2" />
    </g>
  </g>

  <!-- Окно (дубликат окна из дирижабля) -->
  <g class="cabin">
    <path opacity="0"
      d="M204.25,231.88h-2.05a3.45,3.45,0,0,0-3.43,3.45v2.92a3.45,3.45,0,0,0,3.43,3.45h2.05a3.45,3.45,0,0,0,3.43-3.45v-2.92A3.44,3.44,0,0,0,204.25,231.88Z"
      fill="none" stroke="#fff" stroke-linecap="round" stroke-linejoin="round" stroke-width="2">
      <animate attributeName="opacity" begin="mountains.begin" from="0" to="1" dur="0.6s" repeatCount="1"
        fill="freeze" />
      <animate attributeName="d" dur="0.6s" begin="mountains.begin" repeatCount="1"
        values="
      M204.25,231.88h-2.05a3.45,3.45,0,0,0-3.43,3.45v2.92a3.45,3.45,0,0,0,3.43,3.45h2.05a3.45,3.45,0,0,0,3.43-3.45v-2.92A3.44,3.44,0,0,0,204.25,231.88Z;
      M275,225.43H257.87a17.6,17.6,0,0,1-17.52-17.58V170a17.6,17.6,0,0,1,17.52-17.58H275A17.6,17.6,0,0,1,292.51,170v37.83A17.61,17.61,0,0,1,275,225.43Z" fill="freeze" />
    </path>
  </g>

  <!-- Лыжи -->
  <g transform="translate(-50, 0)" transform-origin="150 327.88" opacity="0">
    <animateTransform id="moveSkie" begin="mountains.end + 0.3s" attributeName="transform" type="translate" to="0 0"
      keyTimes="0; 1" keySplines="0 0 0.3 1" calcMode="spline" dur="0.6s" repeatCount="1" fill="freeze" />
    <animateTransform attributeName="transform" type="skewX" begin="moveSkie.end" values="0; -2; 0"
      keySplines="0.4 0 0.7 1; 0.4 0 0.7 1" calcMode="spline" dur="1.5s" repeatCount="indefinite" />
    <animate attributeName="opacity" begin="moveSkie.begin" from="0" to="1" dur="0.6s" repeatCount="1" fill="freeze" />
    <path
      d="M91.14,327.79a2.2,2.2,0,0,1-2-2.36l13.66-193.17c1.1-15.49-4.8-21.92-8.75-24.47a1.35,1.35,0,0,1,.53-2.45C103,104,122.18,104,120,134.19L106.43,326.67a2.2,2.2,0,0,1-2.35,2Z"
      fill="#fff" />
    <path
      d="M124.5,328.17a2.2,2.2,0,0,1-2.17-2.23l2.24-193.63c0.19-15.53-6.07-21.61-10.16-23.91a1.35,1.35,0,0,1,.39-2.47c8.36-1.9,27.49-3,27.15,27.28l-2.25,192.93a2.2,2.2,0,0,1-2.22,2.18Z"
      fill="#fff" />
  </g>

  <!-- Кресло -->
  <g transform="translate(-50, 0)" opacity="0">
    <animateTransform id="moveChair" begin="mountains.end" attributeName="transform" type="translate" to="0 0"
      keyTimes="0; 1" keySplines="0 0 0.3 1" calcMode="spline" dur="0.6s" repeatCount="1" fill="freeze" />
    <animate attributeName="opacity" begin="moveChair.begin" from="0" to="1" dur="0.6s" repeatCount="1" fill="freeze" />

    <path d="M257.5,259.82H196.76V245.63h55.09a9.92,9.92,0,0,1,9.9,9.93,4.26,4.26,0,0,1-4.25,4.25" fill="#a67ee5" />
    <path d="M257.5,259.82H196.76V245.63h55.09a9.92,9.92,0,0,1,9.9,9.93A4.26,4.26,0,0,1,257.5,259.82Z" fill="none"
      stroke="#fff" stroke-miterlimit="10" stroke-width="2" />
    <polygon points="185.47 328.31 171.5 328.31 165.19 286.72 179.16 286.72 185.47 328.31" fill="#a67ee5" />
    <polygon points="185.47 328.31 171.5 328.31 165.19 286.72 179.16 286.72 185.47 328.31" fill="none" stroke="#fff"
      stroke-miterlimit="10" stroke-width="2" />
    <polygon points="235.03 328.31 221.06 328.31 214.76 286.72 228.72 286.72 235.03 328.31" fill="#a67ee5" />
    <polygon points="235.03 328.31 221.06 328.31 214.76 286.72 228.72 286.72 235.03 328.31" fill="none" stroke="#fff"
      stroke-miterlimit="10" stroke-width="2" />
    <path
      d="M281.33,272.45H225.44a5.59,5.59,0,0,1-5.53-4.77l-10.86-72.24a17.71,17.71,0,0,0-12.49-31.31H141.48L141.16,267l15.77,23.35,47.19,8.39a12.3,12.3,0,0,0,4.22.75h73a13.53,13.53,0,0,0,0-27.06"
      fill="#a67ee5" />
    <path
      d="M281.33,272.45H225.44a5.59,5.59,0,0,1-5.53-4.77l-10.86-72.24a17.71,17.71,0,0,0-12.49-31.31H141.48L141.16,267l15.77,23.35,47.19,8.39a12.3,12.3,0,0,0,4.22.75h73A13.53,13.53,0,0,0,281.33,272.45Z"
      fill="none" stroke="#fff" stroke-miterlimit="10" stroke-width="2" />
    <path
      d="M162.42,267.69l-10.86-72.24a17.71,17.71,0,1,0-29-13.61,18,18,0,0,0,.79,5.25L138.65,289a12.36,12.36,0,0,0,12.21,10.54h73a13.53,13.53,0,0,0,0-27.05H167.95a5.62,5.62,0,0,1-5.53-4.78"
      fill="#a67ee5" />
    <path
      d="M162.42,267.69l-10.86-72.24a17.71,17.71,0,1,0-29-13.61,18,18,0,0,0,.79,5.25L138.65,289a12.36,12.36,0,0,0,12.21,10.54h73a13.53,13.53,0,0,0,0-27.05H167.95A5.62,5.62,0,0,1,162.42,267.69Z"
      fill="none" stroke="#fff" stroke-miterlimit="10" stroke-width="2" />
    <path d="M206.26,259.82h-72l-2.13-14.19H200.6a9.92,9.92,0,0,1,9.9,9.93,4.26,4.26,0,0,1-4.25,4.25" fill="#a67ee5" />
    <path d="M206.26,259.82h-72l-2.13-14.19H200.6a9.92,9.92,0,0,1,9.9,9.93A4.26,4.26,0,0,1,206.26,259.82Z" fill="none"
      stroke="#fff" stroke-miterlimit="10" stroke-width="2" />
    <line x1="151.57" y1="195.44" x2="209.05" y2="195.44" fill="none" stroke="#fff" stroke-linecap="round"
      stroke-miterlimit="10" stroke-width="2" />
  </g>

  <!-- Лист -->
  <g transform="translate(-50, 0)" transform-origin="150 327.88" opacity="0">
    <animateTransform id="movePalm" begin="mountains.end + 0.6s" attributeName="transform" type="translate" to="0 0"
      keyTimes="0; 1" keySplines="0 0 0.3 1" calcMode="spline" dur="0.6s" repeatCount="1" fill="freeze" />

    <animateTransform attributeName="transform" type="rotate" begin="movePalm.end" values="0; -5; 0"
      keySplines="0.4 0 0.7 1; 0.4 0 0.7 1" calcMode="spline" dur="1.5s" repeatCount="indefinite" />
    <animate attributeName="opacity" begin="movePalm.begin" from="0" to="1" dur="0.6s" repeatCount="1" fill="freeze" />
    <path
      d="M79.18,194A131,131,0,0,1,94.77,220.9a255,255,0,0,1-20.08-23.55,259,259,0,0,1-17.07-25.88A131.72,131.72,0,0,1,79.18,194"
      fill="#36e69a" />
    <path
      d="M80.94,214.39a127.19,127.19,0,0,1,22.8,20.49A242.09,242.09,0,0,1,77.9,219.17a235.86,235.86,0,0,1-23.42-18.7,119.82,119.82,0,0,1,26.46,13.92"
      fill="#36e69a" />
    <path
      d="M93.66,205.48a258.38,258.38,0,0,0,10.08,29.39,125.63,125.63,0,0,0-4.5-30.52,135.9,135.9,0,0,0-12.06-29.44,260.33,260.33,0,0,0,6.47,30.57"
      fill="#36e69a" />
    <path
      d="M107.32,213.52a250.14,250.14,0,0,0,2.06,30.67,119.93,119.93,0,0,0,3.76-30.05,131.24,131.24,0,0,0-4-31.36,238.1,238.1,0,0,0-1.87,30.74"
      fill="#25b774" />
    <path
      d="M83.08,229.56a121.93,121.93,0,0,1,26.29,14.64A225.91,225.91,0,0,1,81.21,235a228.11,228.11,0,0,1-26.37-12.69,113.61,113.61,0,0,1,28.25,7.29"
      fill="#25b774" />
    <path
      d="M88.06,243.83A118.11,118.11,0,0,1,115.62,255a211,211,0,0,1-28.78-5.6,220.87,220.87,0,0,1-27.42-9.33,114,114,0,0,1,28.65,3.73"
      fill="#25b774" />
    <path
      d="M118.71,224.79a238,238,0,0,0-3.1,30.25,117.11,117.11,0,0,0,8.82-28.54,127.44,127.44,0,0,0,1.42-31.19,213.92,213.92,0,0,0-7.15,29.48"
      fill="#25b774" />
    <path
      d="M98.86,262a118.24,118.24,0,0,1,27.07,12.34,212.3,212.3,0,0,1-28.53-6.79,220.78,220.78,0,0,1-27-10.45A114.06,114.06,0,0,1,98.86,262"
      fill="#068e4d" />
    <path
      d="M130.27,244.29a236.56,236.56,0,0,0-4.34,30.1,116.94,116.94,0,0,0,10-28.16,127.42,127.42,0,0,0,2.71-31.1,214.43,214.43,0,0,0-8.36,29.16"
      fill="#068e4d" />
    <path
      d="M108.9,280.69a118.21,118.21,0,0,1,26.54,13.47,213.62,213.62,0,0,1-28.23-8,221.65,221.65,0,0,1-26.55-11.57,113.82,113.82,0,0,1,28.24,6.08"
      fill="#068e4d" />
    <path
      d="M141,264.26a236.09,236.09,0,0,0-5.58,29.9,117.46,117.46,0,0,0,11.15-27.73,127.2,127.2,0,0,0,4-31A214.24,214.24,0,0,0,141,264.26"
      fill="#068e4d" />
    <path d="M92.62,217.67A529.26,529.26,0,0,1,149.48,328" fill="none" stroke="#36e69a" stroke-linecap="round"
      stroke-linejoin="round" stroke-width="2" />
  </g>
</svg>
